<?xml version="1.0" encoding="utf-8"?>
<!-- Generator: Adobe Illustrator 15.1.0, SVG Export Plug-In . SVG Version: 6.00 Build 0)  -->
<!DOCTYPE svg PUBLIC "-//W3C//DTD SVG 1.1//EN" "http://www.w3.org/Graphics/SVG/1.1/DTD/svg11.dtd">
<svg version="1.1" id="Layer_1" xmlns="http://www.w3.org/2000/svg" xmlns:xlink="http://www.w3.org/1999/xlink" x="0px" y="0px"
	 width="216.795px" height="241.491px" viewBox="0 0 216.795 241.491" enable-background="new 0 0 216.795 241.491"
	 xml:space="preserve">
<path fill="#E7E7E7" d="M48.313,241.491h128.665c21.961,0,39.816-17.856,39.816-39.816V46.801c0-21.96-17.855-39.817-39.816-39.817
	H48.313c-21.961,0-39.817,17.856-39.817,39.817v154.874C8.496,223.635,26.353,241.491,48.313,241.491z"/>
<path fill="#FFFFFF" d="M39.817,234.507h128.665c21.961,0,39.816-17.856,39.816-39.816V39.816C208.299,17.856,190.443,0,168.482,0
	H39.817C17.856,0,0,17.856,0,39.816V194.69C0,216.65,17.856,234.507,39.817,234.507z"/>
<path fill="#383535" d="M25.129,39.745c0-8.064,6.552-14.688,14.688-14.688h128.665c8.064,0,14.688,6.552,14.688,14.688v152.354
	c-7.344,0-20.521,0-24.912,0c-4.32,0-4.032,10.656-3.385,17.208H39.889c-8.063,0-14.688-6.552-14.688-14.688V39.745H25.129z
	 M39.817,219.459h128.665c13.681,0,24.841-11.16,24.841-24.84V39.745c0-13.68-11.16-24.84-24.841-24.84H39.817
	c-13.681,0-24.841,11.16-24.841,24.84v154.875C14.977,208.299,26.137,219.459,39.817,219.459z"/>
<path fill="#383535" d="M95.258,104.833H42.769c-0.72,0-1.224,0.576-1.224,1.224v5.976c0,0.72,0.576,1.224,1.224,1.224h52.489
	c0.72,0,1.224-0.576,1.224-1.224v-5.976C96.481,105.337,95.905,104.833,95.258,104.833z"/>
<path fill="#383535" d="M165.099,104.833H112.61c-0.721,0-1.225,0.576-1.225,1.224v5.976c0,0.72,0.576,1.224,1.225,1.224h52.488
	c0.72,0,1.224-0.576,1.224-1.224v-5.976C166.322,105.337,165.746,104.833,165.099,104.833z"/>
<path fill="#383535" d="M95.258,122.186H42.769c-0.72,0-1.224,0.576-1.224,1.225v5.976c0,0.72,0.576,1.224,1.224,1.224h52.489
	c0.72,0,1.224-0.576,1.224-1.224v-5.976C96.481,122.689,95.905,122.186,95.258,122.186z"/>
<path fill="#383535" d="M165.099,122.186H112.61c-0.721,0-1.225,0.576-1.225,1.225v5.976c0,0.72,0.576,1.224,1.225,1.224h52.488
	c0.72,0,1.224-0.576,1.224-1.224v-5.976C166.322,122.689,165.746,122.186,165.099,122.186z"/>
<path fill="#383535" d="M95.258,139.538H42.769c-0.72,0-1.224,0.575-1.224,1.224v5.977c0,0.72,0.576,1.224,1.224,1.224h52.489
	c0.72,0,1.224-0.576,1.224-1.224v-5.977C96.481,140.042,95.905,139.538,95.258,139.538z"/>
<path fill="#383535" d="M165.099,139.538H112.61c-0.721,0-1.225,0.575-1.225,1.224v5.977c0,0.72,0.576,1.224,1.225,1.224h52.488
	c0.72,0,1.224-0.576,1.224-1.224v-5.977C166.322,140.042,165.746,139.538,165.099,139.538z"/>
<path fill="#383535" d="M95.258,156.891H42.769c-0.72,0-1.224,0.575-1.224,1.224v5.976c0,0.721,0.576,1.225,1.224,1.225h52.489
	c0.72,0,1.224-0.576,1.224-1.225v-5.976C96.481,157.395,95.905,156.891,95.258,156.891z"/>
<path fill="#383535" d="M165.099,156.891H112.61c-0.721,0-1.225,0.575-1.225,1.224v5.976c0,0.721,0.576,1.225,1.225,1.225h52.488
	c0.72,0,1.224-0.576,1.224-1.225v-5.976C166.322,157.395,165.746,156.891,165.099,156.891z"/>
<path fill="#383535" d="M95.258,174.242H42.769c-0.72,0-1.224,0.576-1.224,1.225v5.976c0,0.72,0.576,1.224,1.224,1.224h52.489
	c0.72,0,1.224-0.576,1.224-1.224v-5.976C96.481,174.746,95.905,174.242,95.258,174.242z"/>
<path fill="#383535" d="M165.099,174.242H112.61c-0.721,0-1.225,0.576-1.225,1.225v5.976c0,0.72,0.576,1.224,1.225,1.224h52.488
	c0.72,0,1.224-0.576,1.224-1.224v-5.976C166.322,174.746,165.746,174.242,165.099,174.242z"/>
<path fill="#383535" d="M43.849,77.329l0.792-13.824l0.217-5.544v-3.024c2.016,0,3.815,0.072,5.328,0.072
	c1.079,0,2.664,0,4.68-0.072l8.28,15.048l1.151,2.232c0.145-2.16,0.288-5.256,0.433-9.144c0.144-3.888,0.216-6.624,0.216-8.136
	c1.584,0,2.88,0.072,3.816,0.072c0.432,0,1.728,0,3.815-0.072l-0.432,5.76l-0.864,16.056l-0.144,4.608
	c-1.656,0-3.24-0.072-4.753-0.072c-1.224,0-2.88,0-5.039,0.072c-0.648-1.296-1.152-2.16-1.513-2.736l-3.24-5.544
	c-1.08-1.8-2.088-3.528-2.952-5.184c-0.575-1.08-1.224-2.232-1.871-3.456l-0.433,9.216l-0.216,7.776
	c-1.584,0-2.808-0.072-3.672-0.072c-0.721,0-2.017,0-3.96,0.072L43.849,77.329z M76.754,73.009c0.144-2.232,0.287-5.256,0.432-9
	c0.144-3.744,0.216-6.192,0.216-7.416v-1.728c3.024,0,6.769,0.072,11.088,0.072c4.032,0,7.488,0,10.585-0.072l-0.072,0.648
	c0,0.144-0.072,0.72-0.072,1.656l-0.144,2.088c0,0.432-0.072,0.936-0.072,1.368c-2.521-0.072-4.608-0.144-6.265-0.144
	c-1.872,0-3.096,0-3.744,0c-0.647,0-1.655,0-3.023,0.072l-0.216,4.464c1.512,0.072,3.312,0.072,5.328,0.072
	c0.72,0,2.664-0.072,5.76-0.144c-0.144,1.656-0.288,3.6-0.36,5.904c-2.231,0-3.96-0.072-5.184-0.072c-1.8,0-3.816,0.072-5.977,0.144
	l-0.216,4.752h2.232c0.647,0,2.016,0,4.104-0.072l4.032-0.072c0.576,0,1.584-0.072,2.952-0.144c-0.144,1.944-0.288,3.888-0.36,5.904
	c-3.168,0-6.624-0.072-10.368-0.072h-8.567h-2.736c0.36-3.312,0.576-6.12,0.72-8.352L76.754,73.009z M105.77,54.937
	c1.152,0,2.448,0,3.96-0.072c0.36,2.088,0.648,3.672,0.864,4.608l1.656,7.848c0.36,1.656,0.72,3.744,1.152,6.12l0.647-2.736l2.304-9
	l1.584-6.912c1.801,0,3.24,0.072,4.536,0.072c1.368,0,2.809,0,4.465-0.072l1.224,8.136l1.729,10.368l0.791-2.88
	c0.145-0.504,0.288-1.008,0.433-1.512c0.144-0.504,0.504-1.512,0.936-3.024l2.376-7.488l1.08-3.744c1.584,0,2.881,0,3.889,0
	c1.151,0,2.447,0,3.888,0l-7.56,22.537l-1.225,3.96c-1.944,0-3.672-0.072-5.112-0.072c-1.512,0-3.239,0-5.04,0.072l-0.432-2.664
	l-1.729-9.288c-0.071-0.576-0.144-1.152-0.216-1.728c-0.071-0.576-0.144-1.512-0.288-2.736l-0.647,3.024
	c-0.145,0.648-0.36,1.368-0.504,2.016l-3.097,11.304c-1.943,0-3.6-0.072-4.896-0.072c-1.368,0-3.024,0-4.896,0.072l-0.647-3.6
	c-0.145-0.864-0.433-2.016-0.721-3.528l-3.168-14.472l-1.151-4.896c1.655,0,2.952,0.072,3.96,0.072L105.77,54.937z M155.091,73.513
	c-0.072-0.216-0.217-0.432-0.36-0.648c-0.216-0.288-0.432-0.504-0.792-0.792l-3.672-3.168c-0.864-0.72-1.44-1.224-1.8-1.584
	c-0.721-0.648-1.225-1.296-1.584-1.872c-0.36-0.576-0.648-1.152-0.864-1.728c-0.145-0.576-0.288-1.224-0.288-1.872
	c0-0.792,0.144-1.584,0.432-2.304c0.288-0.792,0.721-1.44,1.225-2.16c0.575-0.648,1.296-1.224,2.231-1.728
	c0.937-0.504,1.872-0.792,2.952-1.008c1.08-0.144,2.16-0.288,3.24-0.288c2.16,0,4.536,0.288,7.128,0.792
	c0.072,0.864,0.072,1.728,0.145,2.448c0.071,0.72,0.144,2.016,0.359,3.888c-1.224-0.504-2.304-0.792-3.24-1.008
	c-1.008-0.216-1.8-0.288-2.52-0.288c-1.008,0-1.872,0.216-2.521,0.576c-0.647,0.36-1.008,0.864-1.008,1.368
	c0,0.288,0.072,0.504,0.145,0.792c0.071,0.216,0.287,0.504,0.575,0.864c0.288,0.36,0.648,0.72,1.152,1.08
	c0.433,0.36,1.224,1.008,2.16,1.728l1.368,1.08c0.432,0.36,0.864,0.72,1.368,1.224s0.863,0.936,1.224,1.44
	c0.36,0.432,0.648,0.864,0.792,1.296c0.216,0.36,0.36,0.792,0.432,1.152c0.072,0.36,0.145,0.792,0.145,1.296
	c0,1.152-0.288,2.304-0.864,3.312c-0.576,1.08-1.368,1.944-2.376,2.592c-1.008,0.648-2.16,1.152-3.384,1.44
	c-1.225,0.288-2.521,0.432-3.889,0.432c-2.088,0-4.752-0.288-7.92-0.936c-0.144-2.736-0.359-4.968-0.576-6.625
	c1.44,0.648,2.736,1.08,3.889,1.368s2.16,0.36,2.952,0.36c1.151,0,2.016-0.144,2.664-0.504c0.647-0.36,1.008-0.792,1.008-1.44
	c0-0.216,0-0.432-0.072-0.648L155.091,73.513z M42.985,95.905h122.257c2.017,0,3.601-1.656,3.601-3.6V42.84
	c0-2.016-1.656-3.6-3.601-3.6H42.985c-2.017,0-3.601,1.656-3.601,3.6v49.465C39.385,94.321,41.041,95.905,42.985,95.905z"/>
</svg>
