<?xml version="1.0" encoding="utf-8"?>
<!-- Generator: Adobe Illustrator 15.1.0, SVG Export Plug-In . SVG Version: 6.00 Build 0)  -->
<!DOCTYPE svg PUBLIC "-//W3C//DTD SVG 1.1//EN" "http://www.w3.org/Graphics/SVG/1.1/DTD/svg11.dtd">
<svg version="1.1" id="Layer_1" xmlns="http://www.w3.org/2000/svg" xmlns:xlink="http://www.w3.org/1999/xlink" x="0px" y="0px"
	 width="141.351px" height="134.419px" viewBox="0 0 141.351 134.419" enable-background="new 0 0 141.351 134.419"
	 xml:space="preserve">
<g>
	<path d="M48.836,44.262C46.591,44.587,0,51.336,0,51.336s33.715,32.849,35.339,34.433c-0.383,2.234-8.342,48.65-8.342,48.65
		s41.672-21.91,43.678-22.966c2.008,1.056,43.682,22.966,43.682,22.966s-7.961-46.416-8.345-48.651
		c1.624-1.583,35.339-34.432,35.339-34.432s-46.589-6.749-48.834-7.074C91.513,42.227,70.675,0,70.675,0S49.84,42.227,48.836,44.262
		z M51.854,48.419c0,0,15.521-31.454,18.82-38.143c3.302,6.688,18.823,38.143,18.823,38.143s34.69,5.025,42.075,6.095
		c-5.345,5.208-30.447,29.666-30.447,29.666s5.931,34.576,7.191,41.927c-6.602-3.471-37.643-19.79-37.643-19.79
		s-31.039,16.319-37.64,19.79c1.261-7.351,7.19-41.927,7.19-41.927S15.122,59.722,9.778,54.514
		C17.163,53.444,51.854,48.419,51.854,48.419z"/>
</g>
</svg>
